#N canvas 42 139 1534 678 12;
#X obj 647 251 f;
#X obj 693 251 + 1;
#X obj 647 312 % 0;
#X floatatom 647 340 5 0 0 0 - - -;
#X obj 647 397 bng 15 250 50 0 empty empty empty 17 7 0 10 -262144
-1 -1;
#X obj 666 397 bng 15 250 50 0 empty empty empty 17 7 0 10 -262144
-1 -1;
#X obj 685 397 bng 15 250 50 0 empty empty empty 17 7 0 10 -262144
-1 -1;
#X obj 704 397 bng 15 250 50 0 empty empty empty 17 7 0 10 -262144
-1 -1;
#X obj 723 397 bng 15 250 50 0 empty empty empty 17 7 0 10 -262144
-1 -1;
#X obj 742 397 bng 15 250 50 0 empty empty empty 17 7 0 10 -262144
-1 -1;
#X obj 761 397 bng 15 250 50 0 empty empty empty 17 7 0 10 -262144
-1 -1;
#X obj 780 397 bng 15 250 50 0 empty empty empty 17 7 0 10 -262144
-1 -1;
#X obj 799 397 bng 15 250 50 0 empty empty empty 17 7 0 10 -262144
-1 -1;
#X obj 818 397 bng 15 250 50 0 empty empty empty 17 7 0 10 -262144
-1 -1;
#X obj 837 397 bng 15 250 50 0 empty empty empty 17 7 0 10 -262144
-1 -1;
#X obj 856 397 bng 15 250 50 0 empty empty empty 17 7 0 10 -262144
-1 -1;
#X obj 875 397 bng 15 250 50 0 empty empty empty 17 7 0 10 -262144
-1 -1;
#X obj 894 397 bng 15 250 50 0 empty empty empty 17 7 0 10 -262144
-1 -1;
#X obj 913 397 bng 15 250 50 0 empty empty empty 17 7 0 10 -262144
-1 -1;
#X floatatom 647 439 5 0 0 0 - - -;
#X floatatom 696 313 5 0 0 0 - - -;
#X obj 11 235 unpack f f f f f f f f f f f f f f f;
#X obj 647 366 select 0 1 2 3 4 5 6 7 8 9 10 11 12 13 14;
#X obj 288 236 unpack f f f f f f f f f f f f f f f;
#X obj 649 658 dac~;
#X obj 649 621 *~;
#N canvas 596 290 450 272 osc 0;
#X obj 25 127 phasor~;
#X obj 25 170 expr~ $v1 *2 + 1;
#X obj 159 127 phasor~;
#X obj 159 170 expr~ $v1 *2 + 1;
#X obj 159 89 * 1.001;
#X obj 26 29 inlet;
#X obj 25 224 outlet~;
#X obj 45 84 select 0;
#X connect 0 0 1 0;
#X connect 1 0 6 0;
#X connect 2 0 3 0;
#X connect 3 0 6 0;
#X connect 4 0 2 0;
#X connect 5 0 7 0;
#X connect 7 1 4 0;
#X connect 7 1 0 0;
#X restore 649 559 pd osc;
#N canvas 155 60 450 272 filter 0;
#X obj 77 111 bob~;
#X msg 76 71 300;
#X msg 114 71 1.5;
#X obj 76 34 loadbang;
#X obj 27 63 inlet~;
#X obj 73 201 outlet~;
#X obj 198 45 receive cutoff;
#X floatatom 195 81 5 0 0 0 - - -;
#X obj 209 206 * 10000;
#X obj 194 240 + 20;
#X obj 215 111 / 127;
#X obj 195 144 pow 5;
#X connect 0 0 5 0;
#X connect 1 0 0 1;
#X connect 2 0 0 2;
#X connect 3 0 2 0;
#X connect 3 0 1 0;
#X connect 4 0 0 0;
#X connect 6 0 7 0;
#X connect 7 0 10 0;
#X connect 8 0 9 0;
#X connect 9 0 0 1;
#X connect 10 0 11 0;
#X connect 11 0 8 0;
#X restore 649 590 pd filter;
#X floatatom 636 34 5 0 0 0 - - -;
#X obj 636 61 send cutoff;
#X obj 10 369 *~;
#N canvas 248 279 457 334 osc 0;
#X obj 26 67 select 0;
#X obj 25 127 phasor~;
#X obj 159 127 phasor~;
#X obj 26 29 inlet;
#X obj 25 224 outlet~;
#X obj 159 89 * 1.001;
#X obj 159 170 expr~ $v1 *2 + 1;
#X obj 25 170 expr~ $v1 *2 + 1;
#X connect 0 1 1 0;
#X connect 0 1 5 0;
#X connect 1 0 7 0;
#X connect 2 0 6 0;
#X connect 3 0 0 0;
#X connect 5 0 2 0;
#X connect 6 0 4 0;
#X connect 7 0 4 0;
#X restore 10 307 pd osc;
#N canvas 405 98 450 244 filter 0;
#X obj 77 111 bob~;
#X msg 76 71 300;
#X msg 114 71 1.5;
#X obj 76 34 loadbang;
#X obj 27 63 inlet~;
#X obj 73 201 outlet~;
#X obj 198 45 receive cutoff;
#X floatatom 195 81 5 0 0 0 - - -;
#X obj 209 206 * 10000;
#X obj 194 240 + 20;
#X obj 215 111 / 127;
#X obj 195 144 pow 5;
#X connect 0 0 5 0;
#X connect 1 0 0 1;
#X connect 2 0 0 2;
#X connect 3 0 2 0;
#X connect 3 0 1 0;
#X connect 4 0 0 0;
#X connect 6 0 7 0;
#X connect 7 0 10 0;
#X connect 8 0 9 0;
#X connect 9 0 0 1;
#X connect 10 0 11 0;
#X connect 11 0 8 0;
#X restore 10 338 pd filter;
#X obj 93 370 *~;
#N canvas 596 290 450 272 osc 0;
#X obj 26 67 select 0;
#X obj 25 127 phasor~;
#X obj 25 170 expr~ $v1 *2 + 1;
#X obj 159 127 phasor~;
#X obj 159 170 expr~ $v1 *2 + 1;
#X obj 159 89 * 1.001;
#X obj 26 29 inlet;
#X obj 25 224 outlet~;
#X connect 0 1 1 0;
#X connect 0 1 5 0;
#X connect 1 0 2 0;
#X connect 2 0 7 0;
#X connect 3 0 4 0;
#X connect 4 0 7 0;
#X connect 5 0 3 0;
#X connect 6 0 0 0;
#X restore 93 308 pd osc;
#N canvas 155 60 450 272 filter 0;
#X obj 77 111 bob~;
#X msg 76 71 300;
#X msg 114 71 1.5;
#X obj 76 34 loadbang;
#X obj 27 63 inlet~;
#X obj 73 201 outlet~;
#X obj 198 45 receive cutoff;
#X floatatom 195 81 5 0 0 0 - - -;
#X obj 209 206 * 10000;
#X obj 194 240 + 20;
#X obj 215 111 / 127;
#X obj 195 144 pow 5;
#X connect 0 0 5 0;
#X connect 1 0 0 1;
#X connect 2 0 0 2;
#X connect 3 0 2 0;
#X connect 3 0 1 0;
#X connect 4 0 0 0;
#X connect 6 0 7 0;
#X connect 7 0 10 0;
#X connect 8 0 9 0;
#X connect 9 0 0 1;
#X connect 10 0 11 0;
#X connect 11 0 8 0;
#X restore 93 339 pd filter;
#X obj 253 370 *~;
#N canvas 596 290 450 272 osc 0;
#X obj 26 67 select 0;
#X obj 25 127 phasor~;
#X obj 25 170 expr~ $v1 *2 + 1;
#X obj 159 127 phasor~;
#X obj 159 170 expr~ $v1 *2 + 1;
#X obj 159 89 * 1.001;
#X obj 26 29 inlet;
#X obj 25 224 outlet~;
#X connect 0 1 1 0;
#X connect 0 1 5 0;
#X connect 1 0 2 0;
#X connect 2 0 7 0;
#X connect 3 0 4 0;
#X connect 4 0 7 0;
#X connect 5 0 3 0;
#X connect 6 0 0 0;
#X restore 253 308 pd osc;
#N canvas 155 60 450 272 filter 0;
#X obj 77 111 bob~;
#X msg 76 71 300;
#X msg 114 71 1.5;
#X obj 76 34 loadbang;
#X obj 27 63 inlet~;
#X obj 73 201 outlet~;
#X obj 198 45 receive cutoff;
#X floatatom 195 81 5 0 0 0 - - -;
#X obj 209 206 * 10000;
#X obj 194 240 + 20;
#X obj 215 111 / 127;
#X obj 195 144 pow 5;
#X connect 0 0 5 0;
#X connect 1 0 0 1;
#X connect 2 0 0 2;
#X connect 3 0 2 0;
#X connect 3 0 1 0;
#X connect 4 0 0 0;
#X connect 6 0 7 0;
#X connect 7 0 10 0;
#X connect 8 0 9 0;
#X connect 9 0 0 1;
#X connect 10 0 11 0;
#X connect 11 0 8 0;
#X restore 253 339 pd filter;
#X obj 173 370 *~;
#N canvas 596 290 450 272 osc 0;
#X obj 26 67 select 0;
#X obj 25 127 phasor~;
#X obj 25 170 expr~ $v1 *2 + 1;
#X obj 159 127 phasor~;
#X obj 159 170 expr~ $v1 *2 + 1;
#X obj 159 89 * 1.001;
#X obj 26 29 inlet;
#X obj 25 224 outlet~;
#X connect 0 1 1 0;
#X connect 0 1 5 0;
#X connect 1 0 2 0;
#X connect 2 0 7 0;
#X connect 3 0 4 0;
#X connect 4 0 7 0;
#X connect 5 0 3 0;
#X connect 6 0 0 0;
#X restore 173 308 pd osc;
#N canvas 155 60 450 272 filter 0;
#X obj 77 111 bob~;
#X msg 76 71 300;
#X msg 114 71 1.5;
#X obj 76 34 loadbang;
#X obj 27 63 inlet~;
#X obj 73 201 outlet~;
#X obj 198 45 receive cutoff;
#X floatatom 195 81 5 0 0 0 - - -;
#X obj 209 206 * 10000;
#X obj 194 240 + 20;
#X obj 215 111 / 127;
#X obj 195 144 pow 5;
#X connect 0 0 5 0;
#X connect 1 0 0 1;
#X connect 2 0 0 2;
#X connect 3 0 2 0;
#X connect 3 0 1 0;
#X connect 4 0 0 0;
#X connect 6 0 7 0;
#X connect 7 0 10 0;
#X connect 8 0 9 0;
#X connect 9 0 0 1;
#X connect 10 0 11 0;
#X connect 11 0 8 0;
#X restore 173 339 pd filter;
#X obj 9 463 *~;
#N canvas 596 290 450 272 osc 0;
#X obj 26 67 select 0;
#X obj 25 127 phasor~;
#X obj 25 170 expr~ $v1 *2 + 1;
#X obj 159 127 phasor~;
#X obj 159 170 expr~ $v1 *2 + 1;
#X obj 159 89 * 1.001;
#X obj 26 29 inlet;
#X obj 25 224 outlet~;
#X connect 0 1 1 0;
#X connect 0 1 5 0;
#X connect 1 0 2 0;
#X connect 2 0 7 0;
#X connect 3 0 4 0;
#X connect 4 0 7 0;
#X connect 5 0 3 0;
#X connect 6 0 0 0;
#X restore 9 401 pd osc;
#N canvas 155 60 450 272 filter 0;
#X obj 77 111 bob~;
#X msg 76 71 300;
#X msg 114 71 1.5;
#X obj 76 34 loadbang;
#X obj 27 63 inlet~;
#X obj 73 201 outlet~;
#X obj 198 45 receive cutoff;
#X floatatom 195 81 5 0 0 0 - - -;
#X obj 209 206 * 10000;
#X obj 194 240 + 20;
#X obj 215 111 / 127;
#X obj 195 144 pow 5;
#X connect 0 0 5 0;
#X connect 1 0 0 1;
#X connect 2 0 0 2;
#X connect 3 0 2 0;
#X connect 3 0 1 0;
#X connect 4 0 0 0;
#X connect 6 0 7 0;
#X connect 7 0 10 0;
#X connect 8 0 9 0;
#X connect 9 0 0 1;
#X connect 10 0 11 0;
#X connect 11 0 8 0;
#X restore 9 432 pd filter;
#X obj 92 464 *~;
#N canvas 596 290 450 272 osc 0;
#X obj 26 67 select 0;
#X obj 25 127 phasor~;
#X obj 25 170 expr~ $v1 *2 + 1;
#X obj 159 127 phasor~;
#X obj 159 170 expr~ $v1 *2 + 1;
#X obj 159 89 * 1.001;
#X obj 26 29 inlet;
#X obj 25 224 outlet~;
#X connect 0 1 1 0;
#X connect 0 1 5 0;
#X connect 1 0 2 0;
#X connect 2 0 7 0;
#X connect 3 0 4 0;
#X connect 4 0 7 0;
#X connect 5 0 3 0;
#X connect 6 0 0 0;
#X restore 92 402 pd osc;
#N canvas 155 60 450 272 filter 0;
#X obj 77 111 bob~;
#X msg 76 71 300;
#X msg 114 71 1.5;
#X obj 76 34 loadbang;
#X obj 27 63 inlet~;
#X obj 73 201 outlet~;
#X obj 198 45 receive cutoff;
#X floatatom 195 81 5 0 0 0 - - -;
#X obj 209 206 * 10000;
#X obj 194 240 + 20;
#X obj 215 111 / 127;
#X obj 195 144 pow 5;
#X connect 0 0 5 0;
#X connect 1 0 0 1;
#X connect 2 0 0 2;
#X connect 3 0 2 0;
#X connect 3 0 1 0;
#X connect 4 0 0 0;
#X connect 6 0 7 0;
#X connect 7 0 10 0;
#X connect 8 0 9 0;
#X connect 9 0 0 1;
#X connect 10 0 11 0;
#X connect 11 0 8 0;
#X restore 92 433 pd filter;
#X obj 257 466 *~;
#N canvas 596 290 450 272 osc 0;
#X obj 26 67 select 0;
#X obj 25 127 phasor~;
#X obj 25 170 expr~ $v1 *2 + 1;
#X obj 159 127 phasor~;
#X obj 159 170 expr~ $v1 *2 + 1;
#X obj 159 89 * 1.001;
#X obj 26 29 inlet;
#X obj 25 224 outlet~;
#X connect 0 1 1 0;
#X connect 0 1 5 0;
#X connect 1 0 2 0;
#X connect 2 0 7 0;
#X connect 3 0 4 0;
#X connect 4 0 7 0;
#X connect 5 0 3 0;
#X connect 6 0 0 0;
#X restore 257 404 pd osc;
#N canvas 155 60 450 272 filter 0;
#X obj 77 111 bob~;
#X msg 76 71 300;
#X msg 114 71 1.5;
#X obj 76 34 loadbang;
#X obj 27 63 inlet~;
#X obj 73 201 outlet~;
#X obj 198 45 receive cutoff;
#X floatatom 195 81 5 0 0 0 - - -;
#X obj 209 206 * 10000;
#X obj 194 240 + 20;
#X obj 215 111 / 127;
#X obj 195 144 pow 5;
#X connect 0 0 5 0;
#X connect 1 0 0 1;
#X connect 2 0 0 2;
#X connect 3 0 2 0;
#X connect 3 0 1 0;
#X connect 4 0 0 0;
#X connect 6 0 7 0;
#X connect 7 0 10 0;
#X connect 8 0 9 0;
#X connect 9 0 0 1;
#X connect 10 0 11 0;
#X connect 11 0 8 0;
#X restore 257 435 pd filter;
#X obj 176 467 *~;
#N canvas 596 290 450 272 osc 0;
#X obj 26 67 select 0;
#X obj 25 127 phasor~;
#X obj 25 170 expr~ $v1 *2 + 1;
#X obj 159 127 phasor~;
#X obj 159 170 expr~ $v1 *2 + 1;
#X obj 159 89 * 1.001;
#X obj 26 29 inlet;
#X obj 25 224 outlet~;
#X connect 0 1 1 0;
#X connect 0 1 5 0;
#X connect 1 0 2 0;
#X connect 2 0 7 0;
#X connect 3 0 4 0;
#X connect 4 0 7 0;
#X connect 5 0 3 0;
#X connect 6 0 0 0;
#X restore 177 405 pd osc;
#N canvas 155 60 450 272 filter 0;
#X obj 77 111 bob~;
#X msg 76 71 300;
#X msg 114 71 1.5;
#X obj 76 34 loadbang;
#X obj 27 63 inlet~;
#X obj 73 201 outlet~;
#X obj 198 45 receive cutoff;
#X floatatom 195 81 5 0 0 0 - - -;
#X obj 209 206 * 10000;
#X obj 194 240 + 20;
#X obj 215 111 / 127;
#X obj 195 144 pow 5;
#X connect 0 0 5 0;
#X connect 1 0 0 1;
#X connect 2 0 0 2;
#X connect 3 0 2 0;
#X connect 3 0 1 0;
#X connect 4 0 0 0;
#X connect 6 0 7 0;
#X connect 7 0 10 0;
#X connect 8 0 9 0;
#X connect 9 0 0 1;
#X connect 10 0 11 0;
#X connect 11 0 8 0;
#X restore 177 436 pd filter;
#X obj 9 554 *~;
#N canvas 596 290 450 272 osc 0;
#X obj 26 67 select 0;
#X obj 25 127 phasor~;
#X obj 25 170 expr~ $v1 *2 + 1;
#X obj 159 127 phasor~;
#X obj 159 170 expr~ $v1 *2 + 1;
#X obj 159 89 * 1.001;
#X obj 26 29 inlet;
#X obj 25 224 outlet~;
#X connect 0 1 1 0;
#X connect 0 1 5 0;
#X connect 1 0 2 0;
#X connect 2 0 7 0;
#X connect 3 0 4 0;
#X connect 4 0 7 0;
#X connect 5 0 3 0;
#X connect 6 0 0 0;
#X restore 9 492 pd osc;
#N canvas 155 60 450 272 filter 0;
#X obj 77 111 bob~;
#X msg 76 71 300;
#X msg 114 71 1.5;
#X obj 76 34 loadbang;
#X obj 27 63 inlet~;
#X obj 73 201 outlet~;
#X obj 198 45 receive cutoff;
#X floatatom 195 81 5 0 0 0 - - -;
#X obj 209 206 * 10000;
#X obj 194 240 + 20;
#X obj 215 111 / 127;
#X obj 195 144 pow 5;
#X connect 0 0 5 0;
#X connect 1 0 0 1;
#X connect 2 0 0 2;
#X connect 3 0 2 0;
#X connect 3 0 1 0;
#X connect 4 0 0 0;
#X connect 6 0 7 0;
#X connect 7 0 10 0;
#X connect 8 0 9 0;
#X connect 9 0 0 1;
#X connect 10 0 11 0;
#X connect 11 0 8 0;
#X restore 9 523 pd filter;
#X obj 99 555 *~;
#N canvas 596 290 450 272 osc 0;
#X obj 26 67 select 0;
#X obj 25 127 phasor~;
#X obj 25 170 expr~ $v1 *2 + 1;
#X obj 159 127 phasor~;
#X obj 159 170 expr~ $v1 *2 + 1;
#X obj 159 89 * 1.001;
#X obj 26 29 inlet;
#X obj 25 224 outlet~;
#X connect 0 1 1 0;
#X connect 0 1 5 0;
#X connect 1 0 2 0;
#X connect 2 0 7 0;
#X connect 3 0 4 0;
#X connect 4 0 7 0;
#X connect 5 0 3 0;
#X connect 6 0 0 0;
#X restore 92 493 pd osc;
#N canvas 155 60 450 272 filter 0;
#X obj 77 111 bob~;
#X msg 76 71 300;
#X msg 114 71 1.5;
#X obj 76 34 loadbang;
#X obj 27 63 inlet~;
#X obj 73 201 outlet~;
#X obj 198 45 receive cutoff;
#X floatatom 195 81 5 0 0 0 - - -;
#X obj 209 206 * 10000;
#X obj 194 240 + 20;
#X obj 215 111 / 127;
#X obj 195 144 pow 5;
#X connect 0 0 5 0;
#X connect 1 0 0 1;
#X connect 2 0 0 2;
#X connect 3 0 2 0;
#X connect 3 0 1 0;
#X connect 4 0 0 0;
#X connect 6 0 7 0;
#X connect 7 0 10 0;
#X connect 8 0 9 0;
#X connect 9 0 0 1;
#X connect 10 0 11 0;
#X connect 11 0 8 0;
#X restore 92 524 pd filter;
#X obj 252 555 *~;
#N canvas 596 290 450 272 osc 0;
#X obj 26 67 select 0;
#X obj 25 127 phasor~;
#X obj 25 170 expr~ $v1 *2 + 1;
#X obj 159 127 phasor~;
#X obj 159 170 expr~ $v1 *2 + 1;
#X obj 159 89 * 1.001;
#X obj 26 29 inlet;
#X obj 25 224 outlet~;
#X connect 0 1 1 0;
#X connect 0 1 5 0;
#X connect 1 0 2 0;
#X connect 2 0 7 0;
#X connect 3 0 4 0;
#X connect 4 0 7 0;
#X connect 5 0 3 0;
#X connect 6 0 0 0;
#X restore 252 493 pd osc;
#N canvas 155 60 450 272 filter 0;
#X obj 77 111 bob~;
#X msg 76 71 300;
#X msg 114 71 1.5;
#X obj 76 34 loadbang;
#X obj 27 63 inlet~;
#X obj 73 201 outlet~;
#X obj 198 45 receive cutoff;
#X floatatom 195 81 5 0 0 0 - - -;
#X obj 209 206 * 10000;
#X obj 194 240 + 20;
#X obj 215 111 / 127;
#X obj 195 144 pow 5;
#X connect 0 0 5 0;
#X connect 1 0 0 1;
#X connect 2 0 0 2;
#X connect 3 0 2 0;
#X connect 3 0 1 0;
#X connect 4 0 0 0;
#X connect 6 0 7 0;
#X connect 7 0 10 0;
#X connect 8 0 9 0;
#X connect 9 0 0 1;
#X connect 10 0 11 0;
#X connect 11 0 8 0;
#X restore 252 524 pd filter;
#X obj 172 555 *~;
#N canvas 596 290 450 272 osc 0;
#X obj 26 67 select 0;
#X obj 25 127 phasor~;
#X obj 25 170 expr~ $v1 *2 + 1;
#X obj 159 127 phasor~;
#X obj 159 170 expr~ $v1 *2 + 1;
#X obj 159 89 * 1.001;
#X obj 26 29 inlet;
#X obj 25 224 outlet~;
#X connect 0 1 1 0;
#X connect 0 1 5 0;
#X connect 1 0 2 0;
#X connect 2 0 7 0;
#X connect 3 0 4 0;
#X connect 4 0 7 0;
#X connect 5 0 3 0;
#X connect 6 0 0 0;
#X restore 172 493 pd osc;
#N canvas 155 60 450 272 filter 0;
#X obj 77 111 bob~;
#X msg 76 71 300;
#X msg 114 71 1.5;
#X obj 76 34 loadbang;
#X obj 27 63 inlet~;
#X obj 73 201 outlet~;
#X obj 198 45 receive cutoff;
#X floatatom 195 81 5 0 0 0 - - -;
#X obj 209 206 * 10000;
#X obj 194 240 + 20;
#X obj 215 111 / 127;
#X obj 195 144 pow 5;
#X connect 0 0 5 0;
#X connect 1 0 0 1;
#X connect 2 0 0 2;
#X connect 3 0 2 0;
#X connect 3 0 1 0;
#X connect 4 0 0 0;
#X connect 6 0 7 0;
#X connect 7 0 10 0;
#X connect 8 0 9 0;
#X connect 9 0 0 1;
#X connect 10 0 11 0;
#X connect 11 0 8 0;
#X restore 172 524 pd filter;
#X obj 9 646 *~;
#N canvas 596 290 450 272 osc 0;
#X obj 26 67 select 0;
#X obj 25 127 phasor~;
#X obj 25 170 expr~ $v1 *2 + 1;
#X obj 159 127 phasor~;
#X obj 159 170 expr~ $v1 *2 + 1;
#X obj 159 89 * 1.001;
#X obj 26 29 inlet;
#X obj 25 224 outlet~;
#X connect 0 1 1 0;
#X connect 0 1 5 0;
#X connect 1 0 2 0;
#X connect 2 0 7 0;
#X connect 3 0 4 0;
#X connect 4 0 7 0;
#X connect 5 0 3 0;
#X connect 6 0 0 0;
#X restore 9 584 pd osc;
#N canvas 155 60 450 272 filter 0;
#X obj 77 111 bob~;
#X msg 76 71 300;
#X msg 114 71 1.5;
#X obj 76 34 loadbang;
#X obj 27 63 inlet~;
#X obj 73 201 outlet~;
#X obj 198 45 receive cutoff;
#X floatatom 195 81 5 0 0 0 - - -;
#X obj 209 206 * 10000;
#X obj 194 240 + 20;
#X obj 215 111 / 127;
#X obj 195 144 pow 5;
#X connect 0 0 5 0;
#X connect 1 0 0 1;
#X connect 2 0 0 2;
#X connect 3 0 2 0;
#X connect 3 0 1 0;
#X connect 4 0 0 0;
#X connect 6 0 7 0;
#X connect 7 0 10 0;
#X connect 8 0 9 0;
#X connect 9 0 0 1;
#X connect 10 0 11 0;
#X connect 11 0 8 0;
#X restore 9 615 pd filter;
#X obj 98 649 *~;
#N canvas 596 290 450 272 osc 0;
#X obj 26 67 select 0;
#X obj 25 127 phasor~;
#X obj 25 170 expr~ $v1 *2 + 1;
#X obj 159 127 phasor~;
#X obj 159 170 expr~ $v1 *2 + 1;
#X obj 159 89 * 1.001;
#X obj 26 29 inlet;
#X obj 25 224 outlet~;
#X connect 0 1 1 0;
#X connect 0 1 5 0;
#X connect 1 0 2 0;
#X connect 2 0 7 0;
#X connect 3 0 4 0;
#X connect 4 0 7 0;
#X connect 5 0 3 0;
#X connect 6 0 0 0;
#X restore 98 587 pd osc;
#N canvas 155 60 450 272 filter 0;
#X obj 77 111 bob~;
#X msg 76 71 300;
#X msg 114 71 1.5;
#X obj 76 34 loadbang;
#X obj 27 63 inlet~;
#X obj 73 201 outlet~;
#X obj 198 45 receive cutoff;
#X floatatom 195 81 5 0 0 0 - - -;
#X obj 209 206 * 10000;
#X obj 194 240 + 20;
#X obj 215 111 / 127;
#X obj 195 144 pow 5;
#X connect 0 0 5 0;
#X connect 1 0 0 1;
#X connect 2 0 0 2;
#X connect 3 0 2 0;
#X connect 3 0 1 0;
#X connect 4 0 0 0;
#X connect 6 0 7 0;
#X connect 7 0 10 0;
#X connect 8 0 9 0;
#X connect 9 0 0 1;
#X connect 10 0 11 0;
#X connect 11 0 8 0;
#X restore 98 618 pd filter;
#X obj 172 647 *~;
#N canvas 596 290 450 272 osc 0;
#X obj 26 67 select 0;
#X obj 25 127 phasor~;
#X obj 25 170 expr~ $v1 *2 + 1;
#X obj 159 127 phasor~;
#X obj 159 170 expr~ $v1 *2 + 1;
#X obj 159 89 * 1.001;
#X obj 26 29 inlet;
#X obj 25 224 outlet~;
#X connect 0 1 1 0;
#X connect 0 1 5 0;
#X connect 1 0 2 0;
#X connect 2 0 7 0;
#X connect 3 0 4 0;
#X connect 4 0 7 0;
#X connect 5 0 3 0;
#X connect 6 0 0 0;
#X restore 172 585 pd osc;
#N canvas 155 60 450 272 filter 0;
#X obj 77 111 bob~;
#X msg 76 71 300;
#X msg 114 71 1.5;
#X obj 76 34 loadbang;
#X obj 27 63 inlet~;
#X obj 73 201 outlet~;
#X obj 198 45 receive cutoff;
#X floatatom 195 81 5 0 0 0 - - -;
#X obj 209 206 * 10000;
#X obj 194 240 + 20;
#X obj 215 111 / 127;
#X obj 195 144 pow 5;
#X connect 0 0 5 0;
#X connect 1 0 0 1;
#X connect 2 0 0 2;
#X connect 3 0 2 0;
#X connect 3 0 1 0;
#X connect 4 0 0 0;
#X connect 6 0 7 0;
#X connect 7 0 10 0;
#X connect 8 0 9 0;
#X connect 9 0 0 1;
#X connect 10 0 11 0;
#X connect 11 0 8 0;
#X restore 172 616 pd filter;
#X obj 371 669 dac~;
#X obj 639 191 unpack f f f f f f f f f f f f f f f;
#X floatatom 689 439 5 0 0 0 - - -;
#X floatatom 732 439 5 0 0 0 - - -;
#X floatatom 774 439 5 0 0 0 - - -;
#X floatatom 816 440 5 0 0 0 - - -;
#X floatatom 648 465 5 0 0 0 - - -;
#X floatatom 690 466 5 0 0 0 - - -;
#X floatatom 732 466 5 0 0 0 - - -;
#X floatatom 775 466 5 0 0 0 - - -;
#X floatatom 817 466 5 0 0 0 - - -;
#X floatatom 650 493 5 0 0 0 - - -;
#X floatatom 692 493 5 0 0 0 - - -;
#X floatatom 733 493 5 0 0 0 - - -;
#X floatatom 775 493 5 0 0 0 - - -;
#X floatatom 817 493 5 0 0 0 - - -;
#X obj 636 6 ctlin;
#X obj 12 31 osc/unpackOSC;
#X obj 636 95 osc/routeOSC /met;
#X obj 285 197 osc/routeOSC /note;
#X obj 739 287 osc/routeOSC /seq;
#X obj 11 202 osc/routeOSC /vol;
#X obj 301 6 osc/routeOSC /cut;
#X obj 640 159 osc/routeOSC /note2;
#X obj 20 1 netreceive -u -b 9001;
#X floatatom 883 44 5 0 0 0 - - -;
#X msg 1031 89 tempo \$1 permin;
#X obj 1033 120 metro;
#X obj 1033 150 bng 15 250 50 0 empty empty empty 17 7 0 10 -262144
-1 -1;
#X obj 982 106 tgl 15 0 empty empty empty 17 7 0 10 -262144 -1 -1 1
1;
#X floatatom 1032 58 5 0 0 0 - - -;
#X floatatom 657 287 5 0 0 0 - - -;
#X obj 1036 28 expr if($f1 > 62 \, $f1 \, -1);
#X floatatom 728 647 5 0 0 0 - - -;
#X obj 966 189 expr if($f1 > 62 \, $f2 \, 0);
#X obj 728 619 line;
#X msg 728 590 \$1 1000;
#X obj 967 217 expr if($f1 > 62 \, $f2 \, 0);
#X obj 967 242 expr if($f1 > 62 \, $f2 \, 0);
#X obj 967 271 expr if($f1 > 62 \, $f2 \, 0);
#X obj 969 302 expr if($f1 > 62 \, $f2 \, 0);
#X obj 968 331 expr if($f1 > 62 \, $f2 \, 0);
#X obj 969 359 expr if($f1 > 62 \, $f2 \, 0);
#X obj 969 384 expr if($f1 > 62 \, $f2 \, 0);
#X obj 969 413 expr if($f1 > 62 \, $f2 \, 0);
#X obj 971 444 expr if($f1 > 62 \, $f2 \, 0);
#X obj 971 475 expr if($f1 > 62 \, $f2 \, 0);
#X obj 972 503 expr if($f1 > 62 \, $f2 \, 0);
#X obj 972 528 expr if($f1 > 62 \, $f2 \, 0);
#X obj 972 557 expr if($f1 > 62 \, $f2 \, 0);
#X obj 974 588 expr if($f1 > 62 \, $f2 \, 0);
#X obj 728 559 expr if($f1 > 62 \, 0.2 \, 0);
#X connect 0 0 1 0;
#X connect 0 0 106 0;
#X connect 1 0 0 1;
#X connect 2 0 3 0;
#X connect 3 0 22 0;
#X connect 4 0 19 0;
#X connect 5 0 77 0;
#X connect 6 0 78 0;
#X connect 7 0 79 0;
#X connect 8 0 80 0;
#X connect 9 0 81 0;
#X connect 10 0 82 0;
#X connect 11 0 83 0;
#X connect 12 0 84 0;
#X connect 13 0 85 0;
#X connect 14 0 86 0;
#X connect 15 0 87 0;
#X connect 16 0 88 0;
#X connect 17 0 89 0;
#X connect 18 0 90 0;
#X connect 19 0 26 0;
#X connect 20 0 2 1;
#X connect 21 0 30 1;
#X connect 21 1 33 1;
#X connect 21 2 39 1;
#X connect 21 3 36 1;
#X connect 21 4 42 1;
#X connect 21 5 45 1;
#X connect 21 6 51 1;
#X connect 21 7 48 1;
#X connect 21 8 54 1;
#X connect 21 9 57 1;
#X connect 21 10 63 1;
#X connect 21 11 60 1;
#X connect 21 12 66 1;
#X connect 21 13 69 1;
#X connect 21 14 72 1;
#X connect 22 0 4 0;
#X connect 22 1 5 0;
#X connect 22 2 6 0;
#X connect 22 3 7 0;
#X connect 22 4 8 0;
#X connect 22 5 9 0;
#X connect 22 6 10 0;
#X connect 22 7 11 0;
#X connect 22 8 12 0;
#X connect 22 9 13 0;
#X connect 22 10 14 0;
#X connect 22 11 15 0;
#X connect 22 12 16 0;
#X connect 22 13 17 0;
#X connect 22 14 18 0;
#X connect 23 0 31 0;
#X connect 23 1 34 0;
#X connect 23 2 40 0;
#X connect 23 3 37 0;
#X connect 23 4 43 0;
#X connect 23 5 46 0;
#X connect 23 6 52 0;
#X connect 23 7 49 0;
#X connect 23 8 55 0;
#X connect 23 9 58 0;
#X connect 23 10 64 0;
#X connect 23 11 61 0;
#X connect 23 12 67 0;
#X connect 23 13 70 0;
#X connect 23 14 73 0;
#X connect 25 0 75 0;
#X connect 25 0 75 1;
#X connect 26 0 27 0;
#X connect 27 0 25 0;
#X connect 28 0 29 0;
#X connect 30 0 75 0;
#X connect 30 0 75 1;
#X connect 31 0 32 0;
#X connect 32 0 30 0;
#X connect 33 0 75 0;
#X connect 33 0 75 1;
#X connect 34 0 35 0;
#X connect 35 0 33 0;
#X connect 36 0 75 0;
#X connect 36 0 75 1;
#X connect 37 0 38 0;
#X connect 38 0 36 0;
#X connect 39 0 75 0;
#X connect 39 0 75 1;
#X connect 40 0 41 0;
#X connect 41 0 39 0;
#X connect 42 0 75 0;
#X connect 42 0 75 1;
#X connect 43 0 44 0;
#X connect 44 0 42 0;
#X connect 45 0 75 0;
#X connect 45 0 75 1;
#X connect 46 0 47 0;
#X connect 47 0 45 0;
#X connect 48 0 75 0;
#X connect 48 0 75 1;
#X connect 49 0 50 0;
#X connect 50 0 48 0;
#X connect 51 0 75 0;
#X connect 51 0 75 1;
#X connect 52 0 53 0;
#X connect 53 0 51 0;
#X connect 54 0 75 0;
#X connect 54 0 75 1;
#X connect 55 0 56 0;
#X connect 56 0 54 0;
#X connect 57 0 75 0;
#X connect 57 0 75 1;
#X connect 58 0 59 0;
#X connect 59 0 57 0;
#X connect 60 0 75 0;
#X connect 60 0 75 1;
#X connect 61 0 62 0;
#X connect 62 0 60 0;
#X connect 63 0 75 0;
#X connect 63 0 75 1;
#X connect 64 0 65 0;
#X connect 65 0 63 0;
#X connect 66 0 75 0;
#X connect 66 0 75 1;
#X connect 67 0 68 0;
#X connect 68 0 66 0;
#X connect 69 0 75 0;
#X connect 69 0 75 1;
#X connect 70 0 71 0;
#X connect 71 0 69 0;
#X connect 72 0 75 0;
#X connect 72 0 75 1;
#X connect 73 0 74 0;
#X connect 74 0 72 0;
#X connect 76 0 109 1;
#X connect 76 1 112 1;
#X connect 76 2 113 1;
#X connect 76 3 114 1;
#X connect 76 4 115 1;
#X connect 76 5 116 1;
#X connect 76 6 117 1;
#X connect 76 7 118 1;
#X connect 76 8 119 1;
#X connect 76 9 120 1;
#X connect 76 10 121 1;
#X connect 76 11 122 1;
#X connect 76 12 123 1;
#X connect 76 13 124 1;
#X connect 76 14 125 1;
#X connect 77 0 26 0;
#X connect 78 0 26 0;
#X connect 79 0 26 0;
#X connect 80 0 26 0;
#X connect 81 0 26 0;
#X connect 82 0 26 0;
#X connect 83 0 26 0;
#X connect 84 0 26 0;
#X connect 85 0 26 0;
#X connect 86 0 26 0;
#X connect 87 0 26 0;
#X connect 88 0 26 0;
#X connect 89 0 26 0;
#X connect 90 0 26 0;
#X connect 91 0 28 0;
#X connect 92 0 96 0;
#X connect 92 0 94 0;
#X connect 92 0 97 0;
#X connect 92 0 95 0;
#X connect 92 0 98 0;
#X connect 92 0 93 0;
#X connect 93 0 100 0;
#X connect 94 0 23 0;
#X connect 95 0 20 0;
#X connect 96 0 21 0;
#X connect 97 0 28 0;
#X connect 98 0 76 0;
#X connect 99 0 92 0;
#X connect 100 0 107 0;
#X connect 100 0 109 0;
#X connect 100 0 112 0;
#X connect 100 0 113 0;
#X connect 100 0 114 0;
#X connect 100 0 115 0;
#X connect 100 0 116 0;
#X connect 100 0 117 0;
#X connect 100 0 118 0;
#X connect 100 0 119 0;
#X connect 100 0 120 0;
#X connect 100 0 121 0;
#X connect 100 0 122 0;
#X connect 100 0 123 0;
#X connect 100 0 124 0;
#X connect 100 0 125 0;
#X connect 100 0 126 0;
#X connect 101 0 102 0;
#X connect 102 0 103 0;
#X connect 103 0 0 0;
#X connect 104 0 102 0;
#X connect 105 0 101 0;
#X connect 106 0 2 0;
#X connect 107 0 105 0;
#X connect 108 0 25 1;
#X connect 109 0 19 0;
#X connect 110 0 108 0;
#X connect 111 0 110 0;
#X connect 112 0 77 0;
#X connect 113 0 78 0;
#X connect 114 0 79 0;
#X connect 115 0 80 0;
#X connect 116 0 81 0;
#X connect 117 0 82 0;
#X connect 118 0 83 0;
#X connect 119 0 84 0;
#X connect 120 0 85 0;
#X connect 121 0 86 0;
#X connect 122 0 87 0;
#X connect 123 0 88 0;
#X connect 124 0 89 0;
#X connect 125 0 90 0;
#X connect 126 0 111 0;
#X coords 0 0 1 1 85 60 0;
